<svg viewBox="0 0 120 62" xmlns="http://www.w3.org/2000/svg" xmlns:serif="http://www.serif.com/" fill-rule="evenodd" clip-rule="evenodd" stroke-linejoin="round" stroke-miterlimit="2"><path d="M97.791 24.446a.998.998 0 1 1-1.997 0v-1.458a.998.998 0 0 1 1.997 0v1.458zm-3.892 1.658a.998.998 0 0 1-1.997 0v-7.031a.998.998 0 1 1 1.997 0v7.031zm-11.679.194a1 1 0 0 1-1.997 0v-6.666a.998.998 0 1 1 1.997 0v6.666zm-3.893 3.39a.998.998 0 1 1-1.996 0V17.747a.997.997 0 1 1 1.996 0v11.941zm-3.893 3.678a.998.998 0 1 1-1.997 0V14.821a.998.998 0 1 1 1.997 0v18.545zm-3.893-5.563a.999.999 0 1 1-1.996 0v-6.667a.998.998 0 0 1 1.996 0v6.667zm-3.893 8.656a.998.998 0 0 1-1.997 0V16.995a1 1 0 0 1 1.997 0v19.464zm-3.892 5.935a.998.998 0 0 1-1.997 0V10.307a.998.998 0 0 1 1.997 0v32.087zm-3.893-2.348a.999.999 0 0 1-1.997 0V8.142a.999.999 0 1 1 1.997 0v31.904zm-4.036-6.302a1 1 0 0 1-.999.992h-.007a.998.998 0 0 1-.992-1.005l.145-21.545a.997.997 0 0 1 .997-.992h.007a.998.998 0 0 1 .992 1.005l-.143 21.545zm-3.894-2.507a.997.997 0 0 1-1.997 0V18.456a.998.998 0 0 1 1.997 0v12.781zm-3.892-5.856a.999.999 0 1 1-1.997 0v-8.594a.998.998 0 1 1 1.997 0v8.594zm-3.894 6.884a.998.998 0 1 1-1.996 0v-11.83a.998.998 0 1 1 1.996 0v11.83zm-3.892-2.773a.999.999 0 1 1-1.997 0V17.21a1 1 0 0 1 1.997 0v12.282zm-7.785-2.999a.999.999 0 0 1-1.998 0v-7.055a1 1 0 0 1 1.998 0v7.055zm-7.786-1.766a1 1 0 0 1-1.997 0v-2.02a.998.998 0 1 1 1.997 0v2.02zm93.497-9.286c-1.991-2.987-12.944-9.956-25.889-10.454-12.447 0-19.915 6.969-19.915 6.969L66.399 2c-1.991 2.987-11.451 2.987-13.442 0 0 0-4.481 9.956-4.98 9.956 0 0-7.467-6.969-19.914-6.969-12.944.498-23.898 7.467-25.889 10.454-1.494 2.489 6.97-.498 12.945 3.485 5.974 3.982 1.991 10.951 4.48 10.951 1.162 0 3.411-.429 5.98-.588V16.016a.998.998 0 1 1 1.997 0v13.218c1.958.018 3.982.28 5.789 1.053V12.945a.998.998 0 1 1 1.997 0v18.462c4.496 3.347 3.291 10.916 5.646 10.916 1.991 0 6.969-.996 11.45 1.991 3.984 3.484 5.477 12.943 7.468 12.943 1.494 0 3.485-9.459 7.468-12.943 3.983-2.987 8.962-1.991 11.451-1.991 1.901 0 .632-7.703 5.271-11.003V15.447a.998.998 0 0 1 1.997 0V30.28a13.588 13.588 0 0 1 1.895-.594V12.945a.998.998 0 0 1 1.997 0v16.411c4.228-.46 8.348.521 9.751.521 2.489 0-1.494-6.969 4.481-10.951 6.472-3.983 14.936-.996 12.944-3.485" fill="#004274" fill-rule="nonzero" serif:id="BatAMP Logo"/></svg>